<?xml version="1.0" encoding="UTF-8" standalone="no"?>
<!-- Generator: Gravit.io -->

<svg
   xmlns:dc="http://purl.org/dc/elements/1.1/"
   xmlns:cc="http://creativecommons.org/ns#"
   xmlns:rdf="http://www.w3.org/1999/02/22-rdf-syntax-ns#"
   xmlns:svg="http://www.w3.org/2000/svg"
   xmlns="http://www.w3.org/2000/svg"
   xmlns:sodipodi="http://sodipodi.sourceforge.net/DTD/sodipodi-0.dtd"
   xmlns:inkscape="http://www.inkscape.org/namespaces/inkscape"
   style="isolation:isolate"
   viewBox="0 0 770.389 555.508"
   width="770.389"
   height="555.508"
   version="1.1"
   id="svg3753"
   sodipodi:docname="logo_large.svg"
   inkscape:version="0.92.2 (5c3e80d, 2017-08-06)"
   inkscape:export-filename="C:\Users\matart\ohi\monster\app\resources\images\logo_large.png"
   inkscape:export-xdpi="96"
   inkscape:export-ydpi="96">
  <metadata
     id="metadata3757">
    <rdf:RDF>
      <cc:Work
         rdf:about="">
        <dc:format>image/svg+xml</dc:format>
        <dc:type
           rdf:resource="http://purl.org/dc/dcmitype/StillImage" />
        <dc:title />
      </cc:Work>
    </rdf:RDF>
  </metadata>
  <sodipodi:namedview
     pagecolor="#ffffff"
     bordercolor="#666666"
     borderopacity="1"
     objecttolerance="10"
     gridtolerance="10"
     guidetolerance="10"
     inkscape:pageopacity="0"
     inkscape:pageshadow="2"
     inkscape:window-width="1532"
     inkscape:window-height="1666"
     id="namedview3755"
     showgrid="false"
     inkscape:snap-grids="false"
     inkscape:zoom="0.77623126"
     inkscape:cx="593.26643"
     inkscape:cy="448.48157"
     inkscape:window-x="1531"
     inkscape:window-y="0"
     inkscape:window-maximized="0"
     inkscape:current-layer="svg3753" />
  <defs
     id="defs3732">
    <clipPath
       id="_clipPath_Ix3Lrn8kbi7DsfwhOl7YW7ecjxXCfQOw">
      <rect
         width="770.389"
         height="555.508"
         id="rect3729" />
    </clipPath>
  </defs>
  <path
     sodipodi:type="star"
     style="opacity:1;fill:#282a2e;fill-opacity:1;stroke:#282a2e;stroke-width:75.59055328;stroke-linecap:round;stroke-linejoin:round;stroke-miterlimit:4;stroke-dasharray:none;stroke-opacity:1"
     id="path1460"
     sodipodi:sides="3"
     sodipodi:cx="193.24138"
     sodipodi:cy="773.22662"
     sodipodi:r1="258.27603"
     sodipodi:r2="129.13802"
     sodipodi:arg1="-0.52359878"
     sodipodi:arg2="0.52359878"
     inkscape:flatsided="true"
     inkscape:rounded="0"
     inkscape:randomized="0"
     d="M 416.91498,644.08861 193.24138,1031.5027 -30.432226,644.08861 Z"
     inkscape:transform-center-y="69.663609"
     transform="matrix(1.2800427,-0.00536164,0,1.08819,133.8998,-640.63672)"
     inkscape:transform-center-x="-7.9631346e-006"
     inkscape:export-xdpi="96"
     inkscape:export-ydpi="96" />
  <g
     clip-path="url(#_clipPath_Ix3Lrn8kbi7DsfwhOl7YW7ecjxXCfQOw)"
     id="g3751"
     transform="matrix(2.6187258,0,0,2.709383,15.209574,0)"
     inkscape:export-xdpi="96"
     inkscape:export-ydpi="96">
    <g
       shape="[GCompoundPath]"
       id="g3738" />
    <g
       id="Group">
      <path
         d="m 220.324,78.405 c 0.135,-1.794 0.224,-3.633 0.224,-5.427 h -4.485 c 0,2.467 -0.135,4.934 -0.404,7.356 -0.045,0.314 0,0.628 0.09,0.897 0.359,1.256 3.544,10.989 10.137,17.717 -1.794,0.359 -4.171,0.404 -6.863,-0.493 -0.672,-0.225 -1.435,-0.135 -2.018,0.314 -0.583,0.403 -0.942,1.076 -0.942,1.839 0,10.675 -7.491,20.812 -21.126,28.572 -13.995,7.939 -32.699,12.335 -52.614,12.335 -19.915,0 -38.575,-4.396 -52.614,-12.335 -13.635,-7.715 -21.126,-17.897 -21.126,-28.572 0,-0.718 -0.359,-1.391 -0.942,-1.839 -0.583,-0.404 -1.346,-0.539 -2.018,-0.314 -2.692,0.897 -5.114,0.807 -6.908,0.493 6.952,-6.997 10.047,-17.358 10.182,-17.852 0.09,-0.269 0.09,-0.583 0.09,-0.897 l -0.27,-2.691 c -0.089,-1.48 -0.179,-3.005 -0.179,-4.53 h -4.485 c 0,1.614 0.044,3.229 0.179,4.844 l 2.243,-0.18 -2.243,0.18 c 0,0.224 0.045,0.448 0.045,0.673 C 47.765,74.128 36.259,59.197 36.243,42.118 c 0,-20.767 16.865,-37.633 37.633,-37.633 8.746,0 17.089,3.006 23.817,8.523 -0.987,0.628 -1.973,1.3 -2.96,2.018 l 2.601,3.633 c 13.053,-9.284 28.572,-14.174 44.989,-14.174 16.82,0 32.609,5.114 45.751,14.802 l 2.646,-3.588 c -1.345,-0.987 -2.691,-1.929 -4.036,-2.781 6.692,-5.441 15.058,-8.404 23.683,-8.388 20.767,0 37.632,16.865 37.632,37.633 0,16.955 -11.483,31.801 -27.675,36.242 z"
         id="path3740"
         inkscape:connector-curvature="0"
         style="fill:#e18a3a" />
      <path
         d="m 139.452,84.191 c -12.963,0 -14.039,1.749 -14.039,1.749 1.032,9.195 14.039,11.932 14.039,11.932 0,0 13.008,-2.781 14.04,-11.932 0,0 -1.077,-1.749 -14.04,-1.749 z"
         id="path3742"
         inkscape:connector-curvature="0"
         style="fill:#aa4225" />
      <path
         d="m 110.342,40.503 c 10.81,0 19.556,8.747 19.556,19.557 0,10.809 -8.746,19.556 -19.556,19.556 -10.81,0 -19.556,-8.747 -19.556,-19.556 0,-10.81 8.746,-19.557 19.556,-19.557 z m 57.862,0 c 10.81,0 19.556,8.747 19.556,19.557 0,10.809 -8.746,19.556 -19.556,19.556 -10.81,0 -19.557,-8.747 -19.557,-19.556 0,-10.81 8.747,-19.557 19.557,-19.557 z m -40.459,70.511 11.662,-4.8 11.214,5.517 c 0,0 -3.454,9.868 -11.438,10.317 0,0.045 -10.361,0.179 -11.438,-11.034 z"
         id="path3744"
         inkscape:connector-curvature="0"
         style="fill:#e61717" />
      <path
         d="m 71.723,112.315 c 3.409,6.234 9.509,11.976 17.986,16.82 13.995,7.939 32.699,12.335 52.614,12.335 19.915,0 38.574,-4.396 52.614,-12.335 7.176,-4.082 12.649,-8.836 16.237,-13.95 -13.142,-10.54 -40.324,-17.762 -71.722,-17.762 -28.482,0 -53.511,5.966 -67.729,14.892 z M 64.456,66.429 c -0.089,-0.045 -0.179,-0.045 -0.269,-0.09 -0.134,-0.045 -0.269,-0.134 -0.403,-0.179 -0.18,-0.09 -0.359,-0.18 -0.539,-0.225 -0.134,-0.044 -0.269,-0.134 -0.403,-0.179 l -0.539,-0.269 c -0.134,-0.045 -0.269,-0.135 -0.403,-0.179 -0.18,-0.09 -0.359,-0.18 -0.539,-0.314 -0.134,-0.045 -0.224,-0.135 -0.358,-0.18 -0.18,-0.09 -0.359,-0.224 -0.584,-0.314 -0.089,-0.045 -0.224,-0.134 -0.314,-0.179 -0.224,-0.135 -0.448,-0.269 -0.627,-0.404 -0.09,-0.045 -0.135,-0.09 -0.225,-0.135 -0.269,-0.179 -0.538,-0.403 -0.852,-0.583 -0.045,-0.044 -0.09,-0.044 -0.09,-0.089 l -0.673,-0.539 c -0.089,-0.089 -0.179,-0.134 -0.269,-0.224 -0.179,-0.134 -0.358,-0.269 -0.538,-0.448 -0.09,-0.09 -0.179,-0.18 -0.314,-0.27 -0.134,-0.134 -0.314,-0.269 -0.448,-0.403 -0.09,-0.09 -0.18,-0.18 -0.314,-0.269 L 55.351,60.553 C 55.261,60.463 55.172,60.329 55.037,60.239 54.902,60.104 54.768,59.97 54.633,59.79 54.544,59.701 54.454,59.566 54.364,59.477 54.231,59.338 54.111,59.188 54.005,59.028 53.916,58.938 53.826,58.804 53.736,58.714 53.602,58.579 53.512,58.4 53.377,58.265 53.288,58.131 53.198,58.041 53.108,57.907 L 52.749,57.413 C 52.66,57.279 52.57,57.189 52.525,57.054 52.391,56.875 52.301,56.696 52.166,56.561 52.077,56.471 52.032,56.337 51.942,56.247 51.807,56.068 51.718,55.888 51.583,55.664 51.538,55.574 51.449,55.484 51.404,55.35 51.269,55.126 51.135,54.857 51,54.632 50.955,54.587 50.955,54.543 50.91,54.453 50.731,54.139 50.596,53.87 50.462,53.556 c -0.045,-0.09 -0.09,-0.18 -0.135,-0.225 -0.089,-0.224 -0.224,-0.448 -0.314,-0.672 -0.045,-0.135 -0.089,-0.225 -0.134,-0.359 -0.09,-0.18 -0.18,-0.404 -0.225,-0.583 L 49.52,51.313 C 49.43,51.134 49.385,50.954 49.296,50.73 l -0.135,-0.404 c -0.045,-0.179 -0.134,-0.359 -0.179,-0.538 -0.045,-0.135 -0.09,-0.269 -0.135,-0.449 l -0.134,-0.538 c -0.045,-0.134 -0.09,-0.269 -0.09,-0.448 -0.045,-0.18 -0.09,-0.359 -0.135,-0.583 -0.045,-0.135 -0.045,-0.314 -0.089,-0.449 -0.045,-0.179 -0.09,-0.404 -0.09,-0.583 -0.045,-0.135 -0.045,-0.314 -0.09,-0.449 -0.045,-0.179 -0.045,-0.403 -0.09,-0.583 0,-0.134 -0.044,-0.269 -0.044,-0.448 -0.045,-0.225 -0.045,-0.404 -0.045,-0.628 0,-0.135 -0.045,-0.269 -0.045,-0.404 0,-0.224 -0.045,-0.448 -0.045,-0.718 v -1.435 c 0,-14.398 11.707,-26.15 26.15,-26.15 0.359,0 0.718,0 1.032,0.045 h 0.358 c 0.225,0 0.494,0.045 0.718,0.045 0.135,0 0.269,0.045 0.404,0.045 0.224,0 0.448,0.045 0.673,0.089 0.134,0 0.269,0.045 0.403,0.045 0.225,0.045 0.449,0.045 0.673,0.09 0.135,0 0.269,0.045 0.359,0.045 l 0.762,0.134 c 0.09,0 0.18,0.045 0.27,0.045 0.358,0.09 0.672,0.135 0.986,0.225 0.09,0 0.135,0.044 0.225,0.044 0.269,0.09 0.538,0.135 0.762,0.225 0.135,0.045 0.224,0.089 0.359,0.089 0.224,0.09 0.448,0.135 0.628,0.225 0.134,0.045 0.269,0.089 0.359,0.134 0.224,0.09 0.403,0.135 0.628,0.225 0.134,0.044 0.224,0.089 0.359,0.134 0.224,0.09 0.403,0.18 0.627,0.269 0.09,0.045 0.225,0.09 0.314,0.135 l 0.808,0.403 c 0.045,0.045 0.09,0.045 0.134,0.09 0.314,0.135 0.628,0.314 0.897,0.494 l 0.27,0.134 c 0.224,0.135 0.403,0.224 0.628,0.359 0.089,0.045 0.224,0.135 0.314,0.224 0.089,0.09 0.224,0.135 0.314,0.224 -13.905,12.38 -22.248,28.617 -23.908,46.29 z M 196.238,20.095 c 0.089,-0.045 0.179,-0.135 0.313,-0.18 0.135,-0.089 0.225,-0.134 0.359,-0.224 0.18,-0.135 0.404,-0.224 0.583,-0.359 0.09,-0.045 0.18,-0.134 0.314,-0.179 0.314,-0.18 0.584,-0.314 0.897,-0.494 0,0 0.045,0 0.045,-0.045 0.269,-0.134 0.583,-0.269 0.853,-0.403 0.089,-0.045 0.224,-0.09 0.314,-0.135 0.224,-0.089 0.403,-0.179 0.628,-0.269 0.134,-0.045 0.224,-0.09 0.358,-0.134 0.18,-0.09 0.404,-0.135 0.583,-0.225 0.135,-0.045 0.27,-0.089 0.359,-0.134 0.225,-0.09 0.404,-0.135 0.628,-0.225 0.135,-0.044 0.225,-0.089 0.359,-0.089 0.224,-0.09 0.493,-0.135 0.718,-0.225 0.089,0 0.179,-0.044 0.224,-0.044 0.314,-0.09 0.673,-0.18 0.987,-0.225 0.089,0 0.179,-0.045 0.269,-0.045 l 0.762,-0.134 c 0.135,0 0.225,-0.045 0.359,-0.045 0.225,-0.045 0.449,-0.09 0.673,-0.09 0.135,0 0.269,-0.045 0.404,-0.045 0.224,-0.044 0.448,-0.044 0.673,-0.089 0.134,0 0.269,-0.045 0.403,-0.045 0.225,0 0.449,-0.045 0.718,-0.045 h 1.39 c 14.399,0 26.15,11.707 26.15,26.15 v 1.39 c 0,0.225 -0.045,0.449 -0.045,0.673 0,0.135 -0.044,0.269 -0.044,0.404 0,0.224 -0.045,0.404 -0.045,0.628 0,0.134 -0.045,0.269 -0.045,0.448 -0.045,0.18 -0.045,0.404 -0.09,0.584 -0.045,0.134 -0.045,0.314 -0.09,0.448 -0.044,0.18 -0.089,0.359 -0.089,0.583 -0.045,0.135 -0.045,0.314 -0.09,0.449 l -0.134,0.538 c -0.045,0.135 -0.09,0.269 -0.09,0.449 l -0.135,0.538 -0.134,0.403 c -0.045,0.18 -0.135,0.359 -0.18,0.539 l -0.134,0.403 c -0.045,0.18 -0.135,0.359 -0.225,0.584 l -0.134,0.403 c -0.09,0.18 -0.18,0.404 -0.224,0.583 -0.045,0.135 -0.09,0.225 -0.135,0.359 -0.09,0.224 -0.224,0.494 -0.314,0.718 -0.045,0.045 -0.045,0.134 -0.09,0.179 -0.134,0.314 -0.314,0.583 -0.448,0.897 l -0.135,0.269 c -0.134,0.225 -0.224,0.404 -0.359,0.628 -0.044,0.135 -0.134,0.225 -0.179,0.314 -0.09,0.18 -0.224,0.359 -0.314,0.539 -0.09,0.134 -0.135,0.224 -0.224,0.358 -0.09,0.18 -0.225,0.314 -0.314,0.494 -0.09,0.134 -0.18,0.224 -0.269,0.359 l -0.314,0.448 c -0.09,0.135 -0.18,0.224 -0.269,0.359 -0.135,0.135 -0.225,0.314 -0.359,0.449 -0.09,0.134 -0.18,0.224 -0.269,0.358 -0.135,0.135 -0.225,0.27 -0.359,0.449 -0.09,0.09 -0.18,0.224 -0.314,0.314 l -0.404,0.404 c -0.09,0.089 -0.179,0.224 -0.314,0.314 l -0.404,0.403 -0.314,0.314 c -0.134,0.135 -0.314,0.269 -0.448,0.404 -0.09,0.09 -0.18,0.179 -0.314,0.269 -0.179,0.135 -0.359,0.314 -0.538,0.449 -0.09,0.044 -0.18,0.134 -0.225,0.224 -0.269,0.224 -0.538,0.404 -0.807,0.628 -0.045,0.045 -0.135,0.09 -0.179,0.134 -0.225,0.18 -0.449,0.314 -0.628,0.449 -0.09,0.09 -0.225,0.134 -0.314,0.224 -0.18,0.135 -0.359,0.224 -0.539,0.359 -0.134,0.09 -0.224,0.135 -0.358,0.224 -0.18,0.09 -0.314,0.225 -0.494,0.314 -0.134,0.09 -0.269,0.135 -0.403,0.225 -0.18,0.089 -0.314,0.179 -0.494,0.269 -0.134,0.089 -0.269,0.134 -0.404,0.224 -0.179,0.09 -0.358,0.179 -0.493,0.269 -0.135,0.045 -0.269,0.135 -0.404,0.179 -0.179,0.09 -0.358,0.18 -0.538,0.225 -0.134,0.045 -0.269,0.134 -0.404,0.179 -0.089,0.045 -0.134,0.045 -0.224,0.09 -1.839,-17.807 -10.227,-34.044 -24.086,-46.334 z"
         id="path3746"
         inkscape:connector-curvature="0"
         style="fill:#fbf8cd" />
      <path
         d="m 94.06,20.095 c 0,-0.673 -0.314,-1.301 -0.807,-1.75 -5.462,-4.445 -12.29,-6.869 -19.332,-6.862 -16.866,0 -30.636,13.725 -30.636,30.635 0,13.77 9.24,25.926 22.517,29.514 0.643,0.183 1.335,0.067 1.884,-0.314 0.538,-0.404 0.897,-1.032 0.942,-1.704 0.987,-18.48 9.688,-35.435 24.58,-47.77 0.583,-0.449 0.852,-1.077 0.852,-1.749 z M 64.411,66.429 C 64.322,66.384 64.232,66.384 64.142,66.339 64.008,66.294 63.873,66.205 63.739,66.16 63.559,66.07 63.38,65.98 63.2,65.936 63.066,65.891 62.931,65.801 62.797,65.756 l -0.539,-0.269 c -0.134,-0.045 -0.269,-0.135 -0.403,-0.179 -0.18,-0.09 -0.359,-0.18 -0.538,-0.314 -0.135,-0.045 -0.225,-0.135 -0.359,-0.18 -0.18,-0.09 -0.359,-0.224 -0.583,-0.314 -0.09,-0.045 -0.225,-0.134 -0.314,-0.179 -0.225,-0.135 -0.449,-0.269 -0.628,-0.404 -0.09,-0.045 -0.135,-0.09 -0.225,-0.134 -0.269,-0.18 -0.538,-0.404 -0.852,-0.584 -0.045,-0.044 -0.09,-0.044 -0.09,-0.089 l -0.672,-0.539 c -0.09,-0.089 -0.18,-0.134 -0.269,-0.224 -0.18,-0.134 -0.359,-0.269 -0.539,-0.448 -0.089,-0.09 -0.179,-0.18 -0.314,-0.269 -0.134,-0.135 -0.314,-0.27 -0.448,-0.404 -0.09,-0.09 -0.18,-0.18 -0.314,-0.269 l -0.404,-0.404 c -0.09,-0.09 -0.179,-0.224 -0.314,-0.314 -0.134,-0.135 -0.269,-0.269 -0.404,-0.448 -0.089,-0.09 -0.179,-0.225 -0.269,-0.314 -0.133,-0.139 -0.253,-0.289 -0.359,-0.449 -0.089,-0.09 -0.179,-0.224 -0.269,-0.314 -0.134,-0.135 -0.224,-0.314 -0.358,-0.449 -0.09,-0.134 -0.18,-0.224 -0.27,-0.358 l -0.358,-0.494 c -0.09,-0.134 -0.18,-0.224 -0.225,-0.359 -0.134,-0.179 -0.224,-0.358 -0.359,-0.493 -0.089,-0.09 -0.134,-0.224 -0.224,-0.314 -0.134,-0.179 -0.224,-0.359 -0.359,-0.583 -0.045,-0.09 -0.134,-0.179 -0.179,-0.314 -0.135,-0.224 -0.269,-0.493 -0.404,-0.718 -0.045,-0.045 -0.045,-0.089 -0.089,-0.179 -0.18,-0.314 -0.314,-0.583 -0.449,-0.897 -0.045,-0.09 -0.09,-0.18 -0.135,-0.224 -0.089,-0.225 -0.224,-0.449 -0.314,-0.673 -0.044,-0.135 -0.089,-0.225 -0.134,-0.359 -0.09,-0.18 -0.18,-0.404 -0.224,-0.583 L 49.475,51.313 C 49.385,51.134 49.34,50.954 49.251,50.73 l -0.135,-0.404 c -0.045,-0.179 -0.134,-0.359 -0.179,-0.538 -0.045,-0.134 -0.09,-0.269 -0.135,-0.448 l -0.134,-0.539 c -0.045,-0.134 -0.09,-0.269 -0.09,-0.448 -0.045,-0.18 -0.09,-0.359 -0.135,-0.583 -0.044,-0.135 -0.044,-0.314 -0.089,-0.449 -0.045,-0.179 -0.09,-0.404 -0.09,-0.583 -0.045,-0.135 -0.045,-0.314 -0.09,-0.449 -0.045,-0.179 -0.045,-0.403 -0.089,-0.583 0,-0.134 -0.045,-0.269 -0.045,-0.448 -0.045,-0.224 -0.045,-0.404 -0.045,-0.628 0,-0.135 -0.045,-0.269 -0.045,-0.404 0,-0.224 -0.045,-0.448 -0.045,-0.718 v -1.435 c 0,-14.398 11.707,-26.15 26.15,-26.15 0.359,0 0.718,0 1.032,0.045 h 0.359 c 0.224,0 0.493,0.045 0.717,0.045 0.135,0 0.269,0.045 0.404,0.045 0.224,0 0.448,0.045 0.673,0.09 0.134,0 0.269,0.044 0.403,0.044 0.225,0.045 0.449,0.045 0.673,0.09 0.135,0 0.269,0.045 0.359,0.045 l 0.763,0.134 c 0.089,0 0.179,0.045 0.269,0.045 0.359,0.09 0.673,0.135 0.986,0.225 0.09,0 0.135,0.044 0.225,0.044 0.269,0.09 0.538,0.135 0.762,0.225 0.135,0.045 0.225,0.089 0.359,0.089 0.224,0.09 0.449,0.135 0.628,0.225 0.135,0.045 0.269,0.089 0.359,0.134 0.224,0.09 0.404,0.135 0.628,0.225 0.134,0.044 0.224,0.089 0.359,0.134 0.224,0.09 0.403,0.18 0.628,0.269 0.089,0.045 0.224,0.09 0.314,0.135 l 0.807,0.403 c 0.045,0.045 0.09,0.045 0.135,0.09 0.314,0.135 0.628,0.314 0.897,0.494 l 0.269,0.134 c 0.224,0.135 0.403,0.224 0.628,0.359 0.089,0.045 0.224,0.135 0.314,0.224 0.089,0.09 0.224,0.135 0.314,0.225 C 74.414,32.519 66.071,48.756 64.411,66.429 Z M 252.44,42.118 C 252.44,18.884 233.556,0 210.322,0 200.05,0 190.272,3.678 182.602,10.406 170.491,3.544 156.721,0 142.278,0 127.79,0 113.93,3.633 101.775,10.541 94.095,3.733 84.183,-0.017 73.921,0 50.686,0 31.803,18.884 31.803,42.118 c 0,19.332 13.187,36.108 31.667,40.817 -1.615,4.037 -5.069,11.124 -10.496,15.071 -0.602,0.459 -0.937,1.188 -0.892,1.944 0.045,0.756 0.464,1.44 1.116,1.824 0.224,0.134 4.844,2.736 11.034,1.66 1.166,11.303 9.33,21.709 23.234,29.648 14.668,8.343 34.134,12.918 54.812,12.918 20.678,0 40.144,-4.575 54.812,-12.918 13.905,-7.894 22.068,-18.345 23.234,-29.604 6.19,1.032 10.765,-1.57 10.989,-1.704 0.673,-0.359 1.077,-1.077 1.122,-1.839 0.045,-0.763 -0.314,-1.48 -0.897,-1.929 -5.428,-3.992 -8.881,-11.124 -10.496,-15.16 18.3,-4.8 31.398,-21.53 31.398,-40.728 z m -32.161,36.287 c 0.135,-1.794 0.225,-3.633 0.225,-5.427 h -4.486 c 0,2.467 -0.134,4.934 -0.404,7.356 -0.044,0.314 0,0.628 0.09,0.897 0.359,1.256 3.544,10.989 10.137,17.717 -1.794,0.359 -4.171,0.404 -6.862,-0.493 -0.673,-0.225 -1.436,-0.135 -2.019,0.314 -0.583,0.403 -0.942,1.076 -0.942,1.839 0,10.675 -7.49,20.812 -21.126,28.572 -13.995,7.939 -32.699,12.335 -52.614,12.335 -19.915,0 -38.574,-4.396 -52.614,-12.335 -13.635,-7.715 -21.126,-17.897 -21.126,-28.572 0,-0.718 -0.359,-1.391 -0.942,-1.839 -0.583,-0.404 -1.346,-0.539 -2.018,-0.314 -2.692,0.897 -5.114,0.807 -6.908,0.493 6.953,-6.997 10.047,-17.358 10.182,-17.852 0.09,-0.269 0.09,-0.583 0.09,-0.897 l -0.269,-2.691 c -0.09,-1.48 -0.18,-3.005 -0.18,-4.53 h -4.485 c 0,1.614 0.045,3.229 0.179,4.844 l 2.243,-0.18 -2.243,0.18 c 0,0.224 0.045,0.448 0.045,0.673 C 47.721,74.128 36.214,59.197 36.198,42.118 c 0,-20.767 16.865,-37.633 37.633,-37.633 8.746,0 17.089,3.006 23.817,8.523 -0.986,0.628 -1.973,1.301 -2.96,2.018 l 2.601,3.633 c 13.053,-9.284 28.573,-14.174 44.989,-14.174 16.82,0 32.609,5.114 45.751,14.802 l 2.647,-3.588 c -1.346,-0.987 -2.692,-1.929 -4.037,-2.781 6.692,-5.441 15.058,-8.404 23.683,-8.388 20.767,0 37.632,16.865 37.632,37.633 0,16.955 -11.482,31.801 -27.675,36.242 z m -9.957,-66.922 c -6.953,0 -13.726,2.377 -19.153,6.728 -0.538,0.403 -0.852,1.076 -0.852,1.749 0,0.673 0.314,1.301 0.807,1.749 14.981,12.335 23.773,29.29 24.76,47.815 0.044,0.673 0.403,1.301 0.942,1.704 0.403,0.269 0.852,0.404 1.3,0.404 0.225,0 0.404,-0.045 0.628,-0.09 13.053,-3.723 22.158,-15.833 22.158,-29.424 0,-16.91 -13.725,-30.635 -30.59,-30.635 z m -14.129,8.612 c 0.089,-0.045 0.179,-0.135 0.314,-0.18 0.134,-0.089 0.224,-0.134 0.358,-0.224 0.18,-0.135 0.404,-0.224 0.584,-0.359 0.089,-0.045 0.179,-0.134 0.314,-0.179 0.314,-0.18 0.583,-0.314 0.897,-0.494 0,0 0.044,0 0.044,-0.045 0.27,-0.134 0.584,-0.269 0.853,-0.403 0.089,-0.045 0.224,-0.09 0.314,-0.135 0.224,-0.089 0.403,-0.179 0.628,-0.269 0.134,-0.045 0.224,-0.09 0.358,-0.134 0.18,-0.09 0.404,-0.135 0.584,-0.225 0.134,-0.045 0.269,-0.089 0.358,-0.134 0.225,-0.09 0.404,-0.135 0.628,-0.225 0.135,-0.044 0.225,-0.089 0.359,-0.089 0.224,-0.09 0.494,-0.135 0.718,-0.225 0.09,0 0.179,-0.044 0.224,-0.044 0.314,-0.09 0.673,-0.18 0.987,-0.225 0.09,0 0.179,-0.045 0.269,-0.045 l 0.763,-0.134 c 0.134,0 0.224,-0.045 0.358,-0.045 0.225,-0.045 0.449,-0.09 0.673,-0.09 0.135,0 0.269,-0.044 0.404,-0.044 0.224,-0.045 0.448,-0.045 0.673,-0.09 0.134,0 0.269,-0.045 0.403,-0.045 0.225,0 0.449,-0.045 0.718,-0.045 h 1.391 c 14.398,0 26.149,11.707 26.149,26.15 v 1.39 c 0,0.225 -0.044,0.449 -0.044,0.673 0,0.135 -0.045,0.269 -0.045,0.404 0,0.224 -0.045,0.404 -0.045,0.628 0,0.135 -0.045,0.269 -0.045,0.448 -0.045,0.18 -0.045,0.404 -0.09,0.584 -0.045,0.134 -0.045,0.314 -0.089,0.448 -0.045,0.18 -0.09,0.359 -0.09,0.583 -0.045,0.135 -0.045,0.314 -0.09,0.449 l -0.134,0.538 c -0.045,0.135 -0.09,0.269 -0.09,0.449 l -0.135,0.538 -0.134,0.404 c -0.045,0.179 -0.135,0.358 -0.18,0.538 l -0.134,0.403 c -0.045,0.18 -0.135,0.359 -0.224,0.584 l -0.135,0.403 c -0.09,0.18 -0.179,0.404 -0.224,0.583 -0.045,0.135 -0.09,0.225 -0.135,0.359 -0.09,0.224 -0.224,0.494 -0.314,0.718 -0.045,0.045 -0.045,0.134 -0.09,0.179 -0.134,0.314 -0.313,0.583 -0.448,0.897 l -0.135,0.269 c -0.134,0.225 -0.224,0.404 -0.358,0.628 -0.045,0.135 -0.135,0.225 -0.18,0.314 -0.09,0.18 -0.224,0.359 -0.314,0.539 -0.09,0.134 -0.134,0.224 -0.224,0.358 -0.09,0.18 -0.224,0.314 -0.314,0.494 -0.09,0.134 -0.18,0.224 -0.269,0.359 l -0.314,0.448 c -0.09,0.135 -0.18,0.225 -0.269,0.359 -0.135,0.135 -0.225,0.314 -0.359,0.449 -0.09,0.134 -0.18,0.224 -0.269,0.358 -0.135,0.135 -0.225,0.27 -0.359,0.449 -0.09,0.09 -0.18,0.224 -0.314,0.314 l -0.404,0.404 c -0.089,0.089 -0.179,0.224 -0.314,0.314 l -0.403,0.403 -0.314,0.314 c -0.135,0.135 -0.314,0.269 -0.449,0.404 -0.09,0.09 -0.179,0.179 -0.314,0.269 -0.179,0.135 -0.359,0.314 -0.538,0.449 -0.09,0.044 -0.18,0.134 -0.224,0.224 -0.27,0.224 -0.539,0.404 -0.808,0.628 -0.045,0.045 -0.134,0.09 -0.179,0.134 -0.225,0.18 -0.449,0.314 -0.628,0.449 -0.09,0.09 -0.224,0.135 -0.314,0.224 -0.18,0.135 -0.359,0.224 -0.538,0.359 -0.135,0.09 -0.225,0.135 -0.359,0.224 -0.18,0.09 -0.314,0.225 -0.494,0.314 -0.134,0.09 -0.269,0.135 -0.403,0.225 -0.18,0.089 -0.314,0.179 -0.494,0.269 -0.134,0.089 -0.269,0.134 -0.403,0.224 -0.18,0.09 -0.359,0.179 -0.494,0.269 -0.134,0.045 -0.269,0.135 -0.404,0.18 -0.179,0.089 -0.358,0.179 -0.538,0.224 -0.134,0.045 -0.269,0.134 -0.403,0.179 -0.09,0.045 -0.135,0.045 -0.225,0.09 C 218.44,48.622 210.053,32.385 196.193,20.095 Z M 132.186,60.06 c 0,-11.887 -9.644,-21.53 -21.44,-21.53 -11.797,0 -21.441,9.643 -21.441,21.53 0,11.886 9.644,21.53 21.441,21.53 11.796,0 21.44,-9.644 21.44,-21.53 z m -21.44,17.044 c -9.375,0 -16.955,-7.625 -16.955,-17.044 0,-9.42 7.625,-17.045 16.955,-17.045 9.329,0 16.955,7.625 16.955,17.045 0,9.419 -7.581,17.044 -16.955,17.044 z m -0.449,-31.398 c -7.625,0 -13.86,6.235 -13.86,13.905 0,7.67 6.19,13.905 13.86,13.905 7.662,-0.025 13.86,-6.243 13.86,-13.905 -0.045,-7.67 -6.235,-13.905 -13.86,-13.905 z m -3.005,16.821 c -3.588,0 -6.504,-2.916 -6.504,-6.549 0,-3.588 2.916,-6.549 6.504,-6.549 3.588,0 6.504,2.916 6.504,6.549 0,3.633 -2.916,6.549 -6.504,6.549 z m 8.477,6.638 c -1.839,0 -3.274,-1.48 -3.274,-3.319 0,-1.839 1.48,-3.319 3.274,-3.319 1.795,0 3.275,1.48 3.275,3.319 0,1.839 -1.436,3.319 -3.275,3.319 z M 168.607,38.53 c -11.841,0 -21.44,9.643 -21.44,21.53 0,11.886 9.644,21.53 21.44,21.53 11.797,0 21.441,-9.644 21.441,-21.53 0,-11.887 -9.599,-21.53 -21.441,-21.53 z m 0,38.574 c -9.374,0 -16.954,-7.625 -16.954,-17.044 0,-9.42 7.625,-17.045 16.954,-17.045 9.33,0 16.955,7.625 16.955,17.045 0,9.419 -7.58,17.044 -16.955,17.044 z m -0.448,-31.398 c -7.625,0 -13.86,6.235 -13.86,13.905 0,7.67 6.19,13.905 13.86,13.905 7.625,0 13.86,-6.235 13.86,-13.905 0,-7.67 -6.19,-13.905 -13.86,-13.905 z m -2.96,16.821 c -3.589,0 -6.504,-2.916 -6.504,-6.549 0,-3.588 2.915,-6.549 6.504,-6.549 3.588,0 6.503,2.916 6.503,6.549 0,3.633 -2.915,6.549 -6.503,6.549 z m 8.477,6.638 c -1.839,0 -3.274,-1.48 -3.274,-3.319 0,-1.839 1.48,-3.319 3.274,-3.319 1.794,0 3.274,1.48 3.274,3.319 0,1.839 -1.48,3.319 -3.274,3.319 z m -11.034,33.685 c -0.045,-0.269 -0.09,-0.403 -0.09,-0.403 l -0.134,0.403 c -0.045,0.135 -0.09,0.27 -0.18,0.449 -0.045,0.179 -0.179,0.359 -0.269,0.538 -0.09,0.18 -0.224,0.404 -0.359,0.583 -0.134,0.18 -0.314,0.404 -0.493,0.583 -0.18,0.18 -0.404,0.359 -0.583,0.539 -0.225,0.179 -0.449,0.314 -0.673,0.448 l -0.673,0.404 c -0.224,0.09 -0.448,0.224 -0.718,0.314 -0.224,0.09 -0.448,0.179 -0.672,0.224 -0.225,0.09 -0.449,0.135 -0.628,0.18 -0.18,0.044 -0.359,0.044 -0.494,0.089 -0.179,0.045 -0.314,0.045 -0.448,0.09 -0.18,0.045 -0.314,0.045 -0.359,0.045 -1.525,0.628 -3.23,0.942 -5.024,0.942 -4.62,0 -8.612,-2.198 -9.285,-4.979 0.045,-0.269 0.045,-0.538 0.045,-0.852 v -2.916 c 0.314,-0.134 0.583,-0.224 0.897,-0.359 0.404,-0.179 0.808,-0.358 1.167,-0.538 0.403,-0.179 0.762,-0.359 1.166,-0.583 0.762,-0.404 1.525,-0.852 2.242,-1.346 0.359,-0.224 0.718,-0.493 1.077,-0.762 0.359,-0.269 0.673,-0.538 1.032,-0.807 0.358,-0.27 0.672,-0.584 0.986,-0.898 0.314,-0.314 0.628,-0.628 0.942,-0.986 0.269,-0.359 0.583,-0.673 0.853,-1.077 0.134,-0.179 0.269,-0.359 0.358,-0.583 0.135,-0.179 0.225,-0.359 0.359,-0.583 0.09,-0.224 0.225,-0.404 0.314,-0.628 0.09,-0.224 0.18,-0.404 0.269,-0.628 0.135,-0.449 0.269,-0.852 0.359,-1.301 0.045,-0.224 0.09,-0.448 0.09,-0.673 0,-0.224 0.045,-0.448 0.045,-0.672 0,-0.449 -0.09,-0.853 -0.18,-1.301 -0.089,0.179 -0.179,0.404 -0.224,0.583 l -0.269,0.538 c -0.09,0.18 -0.179,0.359 -0.314,0.538 -0.09,0.18 -0.179,0.314 -0.314,0.494 -0.224,0.314 -0.449,0.628 -0.718,0.897 l -0.403,0.404 -0.404,0.403 c -0.135,0.135 -0.269,0.225 -0.404,0.359 -0.134,0.135 -0.269,0.224 -0.448,0.359 -0.314,0.224 -0.583,0.449 -0.897,0.673 -0.314,0.179 -0.628,0.403 -0.942,0.583 -0.314,0.179 -0.673,0.359 -0.987,0.583 -0.314,0.179 -0.673,0.359 -1.032,0.538 -0.359,0.18 -0.673,0.359 -1.031,0.494 -0.718,0.314 -1.391,0.628 -2.109,0.942 -0.717,0.269 -1.435,0.583 -2.153,0.852 l -1.076,0.403 -0.404,0.135 -0.403,-0.135 -1.077,-0.403 c -0.718,-0.269 -1.435,-0.538 -2.153,-0.852 -0.359,-0.135 -0.718,-0.314 -1.076,-0.449 l -1.032,-0.493 c -0.359,-0.18 -0.673,-0.314 -1.032,-0.494 -0.359,-0.179 -0.672,-0.359 -1.031,-0.538 -0.314,-0.179 -0.673,-0.359 -0.987,-0.538 -0.314,-0.18 -0.628,-0.404 -0.942,-0.583 -0.314,-0.225 -0.628,-0.449 -0.897,-0.673 -0.314,-0.224 -0.583,-0.449 -0.852,-0.718 l -0.404,-0.404 -0.404,-0.403 c -0.269,-0.269 -0.493,-0.583 -0.717,-0.897 -0.135,-0.135 -0.225,-0.314 -0.314,-0.494 -0.09,-0.179 -0.225,-0.359 -0.269,-0.493 l -0.27,-0.538 c -0.089,-0.18 -0.134,-0.404 -0.224,-0.583 -0.09,0.403 -0.179,0.807 -0.179,1.255 0,0.225 0,0.449 0.045,0.673 0,0.225 0.044,0.449 0.089,0.673 0.09,0.449 0.225,0.852 0.359,1.301 0.09,0.224 0.18,0.404 0.269,0.628 0.09,0.224 0.224,0.404 0.314,0.628 0.09,0.224 0.224,0.403 0.359,0.583 0.135,0.179 0.224,0.404 0.359,0.583 0.269,0.359 0.538,0.718 0.852,1.076 0.314,0.314 0.583,0.673 0.942,0.987 0.314,0.314 0.628,0.628 0.987,0.897 0.359,0.269 0.673,0.539 1.031,0.808 0.359,0.269 0.718,0.493 1.077,0.762 0.718,0.494 1.48,0.897 2.243,1.346 0.762,0.404 1.525,0.762 2.332,1.121 0.224,0.09 0.493,0.18 0.718,0.269 v 3.006 c 0,0.269 0,0.538 0.045,0.852 -0.673,2.781 -4.62,4.979 -9.285,4.979 -1.794,0 -3.499,-0.314 -5.024,-0.942 -0.045,0 -0.179,-0.045 -0.359,-0.045 -0.134,0 -0.269,-0.045 -0.448,-0.09 -0.135,-0.045 -0.314,-0.045 -0.494,-0.09 -0.179,-0.044 -0.403,-0.089 -0.628,-0.179 -0.224,-0.045 -0.448,-0.135 -0.672,-0.224 -0.225,-0.09 -0.449,-0.18 -0.718,-0.314 -0.224,-0.135 -0.493,-0.225 -0.673,-0.404 -0.224,-0.135 -0.448,-0.314 -0.673,-0.449 -0.179,-0.179 -0.403,-0.358 -0.583,-0.538 -0.179,-0.179 -0.314,-0.403 -0.493,-0.583 -0.135,-0.179 -0.269,-0.404 -0.359,-0.583 l -0.269,-0.538 c -0.045,-0.18 -0.135,-0.314 -0.18,-0.449 l -0.134,-0.403 c 0,0 -0.045,0.134 -0.09,0.403 -0.045,0.135 -0.045,0.314 -0.045,0.494 v 0.672 c 0,0.225 0.045,0.494 0.09,0.808 0.045,0.269 0.135,0.583 0.224,0.897 0.09,0.314 0.225,0.628 0.359,0.942 0.135,0.314 0.314,0.628 0.494,0.897 0.179,0.314 0.358,0.583 0.583,0.852 0.224,0.269 0.403,0.538 0.628,0.763 0.224,0.269 0.448,0.493 0.672,0.672 0.225,0.225 0.449,0.404 0.628,0.584 0.18,0.179 0.404,0.314 0.583,0.448 0.18,0.135 0.314,0.224 0.449,0.314 0.224,0.18 0.359,0.269 0.359,0.269 l 0.897,-2.063 -0.852,2.063 c 1.3,0.538 2.691,0.897 4.126,1.077 2.647,6.862 8.119,11.213 14.219,11.213 6.1,0 11.572,-4.351 14.219,-11.258 1.39,-0.224 2.691,-0.538 3.947,-1.077 l -0.852,-2.063 0.897,2.063 c 0,0 0.134,-0.089 0.359,-0.269 0.134,-0.089 0.269,-0.179 0.448,-0.314 l 0.583,-0.448 c 0.18,-0.18 0.404,-0.359 0.628,-0.583 l 0.673,-0.673 c 0.224,-0.224 0.449,-0.494 0.628,-0.763 0.179,-0.269 0.404,-0.538 0.583,-0.852 0.179,-0.314 0.314,-0.628 0.493,-0.897 0.135,-0.314 0.27,-0.628 0.359,-0.942 0.09,-0.314 0.135,-0.583 0.225,-0.897 0.044,-0.269 0.089,-0.538 0.089,-0.807 v -0.673 c -0.134,-0.18 -0.134,-0.359 -0.179,-0.494 z m -32.475,9.734 c 2.692,-0.314 5.114,-1.211 7.043,-2.512 v 8.881 c -2.826,-0.763 -5.338,-3.05 -7.043,-6.369 z m 11.528,6.369 v -8.791 c 1.929,1.256 4.351,2.108 7.042,2.422 -1.66,3.319 -4.171,5.606 -7.042,6.369 z"
         id="path3748"
         inkscape:connector-curvature="0"
         style="fill:#1f110a"
         inkscape:export-xdpi="96"
         inkscape:export-ydpi="96" />
    </g>
  </g>
  <flowRoot
     xml:space="preserve"
     id="flowRoot56"
     style="font-style:normal;font-variant:normal;font-weight:normal;font-stretch:normal;font-size:40px;line-height:1.25;font-family:Montserrat;-inkscape-font-specification:'Montserrat weight=280';letter-spacing:0px;word-spacing:0px;fill:#5f819d;fill-opacity:1;stroke:none;stroke-width:6.35053635;stroke-miterlimit:4;stroke-dasharray:none"
     transform="matrix(1.1696312,0,0,1.2332399,-87.317632,-127.01115)"
     inkscape:export-xdpi="96"
     inkscape:export-ydpi="96"><flowRegion
       id="flowRegion58"
       style="font-style:normal;font-variant:normal;font-weight:normal;font-stretch:normal;font-family:Montserrat;-inkscape-font-specification:'Montserrat weight=280';fill:#5f819d;fill-opacity:1;stroke-width:6.35053635;stroke-miterlimit:4;stroke-dasharray:none"><rect
         id="rect60"
         width="578.43585"
         height="96.620689"
         x="112.08"
         y="418.95074"
         style="font-style:normal;font-variant:normal;font-weight:normal;font-stretch:normal;font-family:Montserrat;-inkscape-font-specification:'Montserrat weight=280';fill:#5f819d;fill-opacity:1;stroke-width:6.35053635;stroke-miterlimit:4;stroke-dasharray:none" /></flowRegion><flowPara
       id="flowPara62"
       style="font-style:normal;font-variant:normal;font-weight:normal;font-stretch:normal;font-size:85.33333588px;font-family:Montserrat;-inkscape-font-specification:'Montserrat weight=280';text-align:center;text-anchor:middle;fill:#5f819d;fill-opacity:1;stroke:#81a2be;stroke-width:6.35053635;stroke-miterlimit:4;stroke-dasharray:none;stroke-opacity:1">MONSTeR</flowPara></flowRoot>  <rect
     style="opacity:0;fill:#5f819d;fill-opacity:1"
     id="rect834"
     width="248.69748"
     height="31.368296"
     x="70.855171"
     y="246.32179" />
  <path
     sodipodi:type="star"
     style="opacity:0;fill:#5f819d;fill-opacity:1"
     id="path842"
     sodipodi:sides="3"
     sodipodi:cx="-152.01656"
     sodipodi:cy="769.36182"
     sodipodi:r1="203.15993"
     sodipodi:r2="58.510056"
     sodipodi:arg1="0.78539816"
     sodipodi:arg2="1.8325957"
     inkscape:flatsided="false"
     inkscape:rounded="0.1"
     inkscape:randomized="0"
     d="m -8.360793,913.01758 c -12.808295,12.80829 -141.302827,-82.45123 -158.799277,-87.13939 -17.49646,-4.68816 -176.40574,13.56174 -181.09391,-3.93471 -4.68816,-17.49646 142.05627,-81.14623 154.86457,-93.95452 12.80829,-12.8083 76.45806,-159.55273 93.954512,-154.86456 17.496456,4.68816 -0.753442,163.59744 3.934716,181.0939 4.688161,17.49646 99.9476838,145.99098 87.139389,158.79928 z"
     inkscape:transform-center-x="25.753959"
     inkscape:transform-center-y="-25.753959" />
  <path
     sodipodi:type="star"
     style="opacity:0;fill:#5f819d;fill-opacity:1"
     id="path848"
     sodipodi:sides="3"
     sodipodi:cx="38.648277"
     sodipodi:cy="479.49973"
     sodipodi:r1="47.369328"
     sodipodi:r2="0.47369328"
     sodipodi:arg1="0.39060704"
     sodipodi:arg2="1.4378046"
     inkscape:flatsided="false"
     inkscape:rounded="0.1"
     inkscape:randomized="0"
     d="m 82.449657,497.53559 c -1.794636,4.3584 -39.066763,-18.19135 -43.738568,-17.56635 -4.671805,0.625 -34.7058473,32.17906 -37.5830163,28.44566 -2.8771691,-3.7334 35.2875543,-24.73713 37.0821903,-29.09553 1.794637,-4.35841 -10.514966,-46.14568 -5.843161,-46.77068 4.671805,-0.625 3.779208,42.92848 6.656377,46.66188 2.877169,3.73341 45.220814,13.96662 43.426178,18.32502 z"
     inkscape:transform-center-x="-3.0909202"
     inkscape:transform-center-y="-8.8678328" />
  <path
     sodipodi:type="star"
     style="opacity:0;fill:#5f819d;fill-opacity:1"
     id="path850"
     sodipodi:sides="3"
     sodipodi:cx="260.23172"
     sodipodi:cy="904.63074"
     sodipodi:r1="145.65207"
     sodipodi:r2="16.769602"
     sodipodi:arg1="1.1909524"
     sodipodi:arg2="1.6042881"
     inkscape:flatsided="false"
     inkscape:rounded="0.1"
     inkscape:randomized="0"
     d="m 314.23594,1039.9011 c -6.88856,11.0801 -44.31874,-110.43432 -54.56576,-118.51017 -11.65819,-9.18801 -136.58964,-24.53612 -143.58814,-37.62634 -6.15136,-11.50572 117.79829,16.836 129.91569,11.99974 13.78615,-5.50228 89.54373,-106.02203 104.37944,-105.5378 13.03993,0.42562 -73.47954,93.59831 -75.34992,106.51042 -2.12796,14.69029 47.04591,130.55815 39.20869,143.16415 z"
     inkscape:transform-center-y="-73.407865" />
  <path
     sodipodi:type="star"
     style="opacity:0;fill:#5f819d;fill-opacity:1"
     id="path852"
     sodipodi:sides="3"
     sodipodi:cx="18.035862"
     sodipodi:cy="589.00317"
     sodipodi:r1="310.51724"
     sodipodi:r2="35.751404"
     sodipodi:arg1="1.5707963"
     sodipodi:arg2="2.6179939"
     inkscape:flatsided="false"
     inkscape:rounded="0.27624172"
     inkscape:randomized="0"
     d="m 18.03587,899.52042 c -81.290994,-10e-6 9.683867,-222.24148 -30.961632,-292.64154 -40.645499,-70.40007 -278.599698,-102.73426 -237.954198,-173.13432 40.6455,-70.40007 187.624829,119.50721 268.915823,119.50721 81.290993,0 228.270317,-189.90729 268.915817,-119.50722 C 327.59717,504.14461 89.642981,536.47881 48.997485,606.87888 8.3519908,677.27894 99.326863,899.52042 18.03587,899.52042 Z"
     inkscape:transform-center-y="76.126806" />
  <path
     sodipodi:type="star"
     style="opacity:0;fill:#333333;fill-opacity:1"
     id="path856"
     sodipodi:sides="3"
     sodipodi:cx="-139.13379"
     sodipodi:cy="729.42523"
     sodipodi:r1="329.64008"
     sodipodi:r2="164.82002"
     sodipodi:arg1="0.78539816"
     sodipodi:arg2="1.8325957"
     inkscape:flatsided="true"
     inkscape:rounded="0"
     inkscape:randomized="0"
     d="M 93.956945,962.51596 -457.54165,814.74236 -53.816661,411.01737 Z"
     inkscape:transform-center-x="42.658565"
     inkscape:transform-center-y="-42.658565" />
  <path
     sodipodi:type="star"
     style="opacity:0;fill:#000000;fill-opacity:1"
     id="path858"
     sodipodi:sides="3"
     sodipodi:cx="10.306207"
     sodipodi:cy="674.02936"
     sodipodi:r1="419.48169"
     sodipodi:r2="209.74084"
     sodipodi:arg1="0.78539816"
     sodipodi:arg2="1.8325957"
     inkscape:flatsided="true"
     inkscape:rounded="0"
     inkscape:randomized="0"
     d="M 306.92455,970.6477 -394.88199,782.59921 118.87606,268.84116 Z"
     inkscape:transform-center-x="54.284927"
     inkscape:transform-center-y="-54.284927" />
  <rect
     style="opacity:0;fill:#000000;fill-opacity:1"
     id="rect860"
     width="164.89931"
     height="311.76276"
     x="-249.92552"
     y="382.87903" />
  <rect
     style="opacity:0;fill:#000000;fill-opacity:1"
     id="rect862"
     width="309.18622"
     height="664.75037"
     x="-313.05103"
     y="270.79904" />
  <rect
     style="opacity:0;fill:#000000;fill-opacity:1"
     id="rect864"
     width="59.260689"
     height="154.59311"
     x="42.513103"
     y="322.33008" />
  <path
     style="opacity:0;fill:#000000;fill-opacity:1;stroke-width:1.28827584"
     d="M -797.20919,564.99413 V -998.32864 H 307.48737 1412.1839 V 564.99413 2128.3169 H 307.48737 -797.20919 Z m 952.33329,-108.82904 0.34671,-28.31166 13.34127,23.87098 c 9.20664,16.47305 13.94577,23.75001 15.29184,23.48063 1.07281,-0.21463 7.82317,-11.04478 15.0008,-24.06706 l 13.05023,-23.6767 0.34672,28.50774 0.34671,28.50787 h 3.84018 3.84019 v -37.36 -37.36 l -3.54276,0.0309 c -3.27441,0.0283 -4.65916,2.07141 -18.28145,26.97714 l -14.7387,26.94686 -14.89164,-26.95962 c -13.75791,-24.90778 -15.16139,-26.96155 -18.43442,-26.97778 l -3.54276,-0.0175 v 37.36 37.36 h 3.84018 3.84019 z m 136.37848,24.15943 c 12.90923,-7.60972 18.57168,-17.98176 18.48076,-33.85177 -0.0673,-11.75036 -3.39273,-19.94921 -11.07681,-27.3099 -10.25119,-9.81976 -27.21784,-12.66762 -40.73363,-6.83701 -26.04588,11.23595 -29.6344,49.28286 -6.22946,66.0472 6.63212,4.75051 12.44001,6.16697 23.45569,5.72097 8.42482,-0.34113 11.51432,-1.06437 16.10345,-3.76949 z m 43.68272,-24.71094 0.64414,-28.21929 21.25655,28.21929 c 17.66009,23.44469 21.85596,28.28809 24.79931,28.62678 l 3.54276,0.40761 v -37.44554 -37.44554 h -3.84065 -3.84063 L 377.40051,438.984 377.05426,468.21112 355.17565,438.984 C 335.8639,413.18589 332.87882,409.75689 329.73221,409.75689 h -3.56484 v 37.44167 37.44155 l 4.18689,-0.40361 4.1869,-0.40375 z m 106.90057,25.96469 c 7.1689,-3.66309 10.44167,-8.14448 11.26182,-15.42066 0.76031,-6.74568 -1.70594,-12.43431 -7.02916,-16.21347 -1.95921,-1.39082 -9.54038,-4.37112 -16.84704,-6.6229 -15.30521,-4.71664 -18.27792,-6.99611 -18.27792,-14.01567 0,-11.73632 16.10249,-16.3763 31.4858,-9.07294 5.38579,2.5571 7.10085,1.80294 7.14276,-3.14056 0.0509,-6.00014 -22.18789,-10.09106 -33.73313,-6.20549 -9.97235,3.35621 -15.77901,14.6169 -12.7502,24.72626 2.07312,6.91946 7.47553,10.53655 22.71757,15.21016 15.21915,4.66665 18.63238,7.25969 18.63238,14.15532 0,7.2526 -4.36949,10.81044 -14.14458,11.51757 -10.06816,0.72826 -15.45182,-0.38365 -21.39921,-4.41969 -4.64716,-3.15357 -4.96707,-3.20136 -6.58832,-0.98424 -2.12884,2.91137 -1.70223,4.22761 2.35128,7.25389 8.94455,6.67817 27.30971,8.27486 37.17795,3.23242 z m 47.69253,-30.59655 v -33.49518 h 12.23862 12.23862 v -3.86482 -3.86483 h -28.9862 -28.98621 v 3.86483 3.86482 h 12.23862 12.23862 v 33.49518 33.49517 h 4.50897 4.50896 z m 62.20067,31.72881 c 2.28012,-0.97149 5.45894,-3.19247 7.06413,-4.93538 2.85881,-3.10397 2.86847,-3.21438 0.47267,-5.38255 -2.32483,-2.10388 -2.68554,-2.05093 -7.2852,1.07056 -3.62933,2.46293 -6.4857,3.28291 -11.42302,3.27931 -10.19928,-0.0129 -16.15923,-4.6588 -19.39009,-15.13248 l -0.8942,-2.89862 h 21.98752 21.98752 v -5.19446 c 0,-18.94834 -19.40233,-31.18993 -36.86543,-23.25956 -20.16628,9.15784 -19.23099,43.24562 1.43785,52.40577 5.07477,2.24908 17.67991,2.27523 22.90825,0.0477 z m 35.7083,-9.82812 v -11.59449 h 12.20538 12.20538 l 7.79613,11.59449 c 7.35722,10.94171 8.05237,11.59448 12.34787,11.59448 3.28948,0 4.28816,-0.44652 3.60125,-1.61035 -0.52279,-0.88569 -4.29009,-6.60847 -8.37186,-12.71734 l -7.42125,-11.10713 4.75297,-3.06391 c 9.03648,-5.82532 13.21578,-20.60043 8.80987,-31.14548 -2.30073,-5.50622 -9.883,-12.0285 -15.93816,-13.71009 -2.67639,-0.74321 -12.25769,-1.35462 -21.29172,-1.35849 l -16.42552,-0.007 v 37.36 37.36 h 3.86483 3.86483 z M 438.8915,392.44671 c 39.57647,-6.45542 74.72632,-19.24916 101.7738,-37.04321 13.10589,-8.62217 33.56538,-28.90891 39.61667,-39.28211 4.94144,-8.47067 10.34898,-22.38688 11.79765,-30.36105 l 0.87757,-4.83104 h 8.08599 c 12.50774,0 24.00419,-5.0612 24.00419,-10.56756 0,-0.53699 -3.93002,-5.28759 -8.73335,-10.55688 -7.56115,-8.2947 -20.93062,-29.92272 -20.88308,-33.78293 0.0129,-0.62295 4.29884,-2.73834 9.53581,-4.70087 17.34097,-6.4984 36.30156,-20.78871 47.9133,-36.11166 7.40836,-9.77602 17.47121,-30.61411 20.65403,-42.76975 3.35055,-12.79663 3.33135,-44.058808 -0.0348,-56.575335 C 664.23839,51.429306 642.94358,24.92732 612.80875,10.333345 587.15402,-2.0909553 554.6771,-3.4883481 527.1384,6.6471751 518.63604,9.7764616 504.19395,18.14219 498.18273,23.420102 l -4.35038,3.819699 -14.58765,-7.049214 C 450.20501,6.1577334 422.34409,0.08516165 387.00108,0.08516165 c -34.19544,0 -60.35669,5.84770315 -90.80902,20.29810035 l -15.16015,7.193874 -3.51985,-3.301645 C 267.98396,15.338129 248.63351,5.8606054 232.35427,2.1579718 219.23003,-0.82706649 196.9381,-0.57113761 183.16875,2.7226875 140.18449,13.005113 106.72056,50.165585 99.391766,95.75397 c -2.066188,12.85264 -0.960629,36.06743 2.284684,47.97395 9.4689,34.73997 33.46093,62.95337 64.73828,76.1289 5.31767,2.24007 10.66203,4.40745 11.87634,4.8164 2.04486,0.68867 2.00804,1.19959 -0.49883,6.9212 -4.18851,9.55974 -13.06792,22.65102 -20.28326,29.90443 -8.63219,8.67774 -8.65265,11.82343 -0.10577,16.25655 2.84248,1.47436 8.35326,2.54837 14.91041,2.90595 l 10.40142,0.56724 1.58108,7.90208 c 2.16095,10.80018 11.62207,29.42788 19.844,39.07011 28.69822,33.65569 79.36138,57.17755 140.78952,65.36557 19.04499,2.53855 75.67089,1.86375 93.96185,-1.11964 z"
     id="path870"
     inkscape:connector-curvature="0" />
  <rect
     style="opacity:0;fill:#ff0000;fill-opacity:1"
     id="rect874"
     width="347.83453"
     height="150.72833"
     x="-288.57379"
     y="630.22797"
     ry="3.2207201"
     rx="114.65655" />
  <rect
     style="opacity:0;fill:#ff0000;fill-opacity:1"
     id="rect876"
     width="448.32001"
     height="383.90622"
     x="-248.63724"
     y="614.76868"
     rx="114.657"
     ry="3.2207201" />
  <rect
     style="opacity:0;fill:#ff0000;fill-opacity:1"
     id="rect878"
     width="319.4924"
     height="188.08827"
     x="-157.16966"
     y="613.48041"
     rx="114.657"
     ry="3.2207201" />
  <rect
     style="opacity:0;fill:#ff0000;fill-opacity:1"
     id="rect880"
     width="346.5462"
     height="265.38483"
     x="-153.30482"
     y="587.7149"
     rx="114.657"
     ry="3.2207201" />
  <rect
     style="opacity:0;fill:#ff0000;fill-opacity:1"
     id="rect885"
     width="341.3931"
     height="289.86206"
     x="126.25104"
     y="578.69696"
     rx="114.657"
     ry="3.2207201" />
</svg>
